<svg id="frame-mesh" data-name="Layer 2" viewBox="0 0 567.51 801.8">
    <rect class="cls-1 sew" x="28.57" y="39.99" width="510.37" height="721.82"/>
    <rect class="cls-1" x="41.33" y="58.04" width="484.86" height="685.72" rx="89.23" ry="89.23"/>
    <rect class="cls-1 sew" x="53.45" y="75.18" width="460.61" height="651.44"/>
    <rect class="cls-1" x="64.96" y="91.46" width="437.58" height="618.87" rx="51.67" ry="51.67"/>
    <rect class="cls-1 sew" x="75.9" y="106.94" width="415.7" height="587.92"/>
    <rect class="cls-1" x="86.3" y="121.63" width="394.92" height="558.53" rx="94.76" ry="94.76"/>
    <rect class="cls-1 sew" x="96.17" y="135.6" width="375.17" height="530.6"/>
    <rect class="cls-1" x="105.55" y="148.86" width="356.41" height="504.07" rx="31.11" ry="31.11"/>
    <rect class="cls-1 sew" x="114.46" y="161.46" width="338.59" height="478.87"/>
    <rect class="cls-1" x="122.92" y="173.44" width="321.66" height="454.92" rx="39.76" ry="39.76"/>
    <rect class="cls-1 sew" x="130.97" y="184.81" width="305.58" height="432.18" rx="110" ry="110"/>
    <rect class="cls-1" x="138.61" y="195.61" width="290.3" height="410.57" rx="29.39" ry="29.39"/>
</svg>
