<?xml version="1.0" encoding="UTF-8"?>
<svg class="circle-pop" data-name="Layer 1" xmlns="http://www.w3.org/2000/svg" viewBox="0 0 100 100">
  <circle class="circle-center" cx="50" cy="50" r="50"/>
  <g class="hover-text">
    <path class="circle-text blue" d="M11.38,54.15l-9.32,.15-.03-2.09,4.48-.07v-.11c-1.19-.2-2.29-1.01-2.31-2.79-.03-1.88,1.18-2.81,2.79-2.84l4.27-.07,.03,2.09-3.64,.06c-1.17,.02-1.58,.53-1.56,1.83,.02,1.4,.6,1.83,1.77,1.81l3.49-.06,.03,2.09Z"/>
    <path class="circle-text blue" d="M3.97,44.39l-1.62-.24,.3-2.06,1.62,.24-.3,2.06Zm7.6,1.11l-6.9-1,.3-2.06,6.89,1-.3,2.06Z"/>
    <path class="circle-text blue" d="M12.81,39.35c-.41,1.57-1.41,2.34-3.1,1.89l-2.64-.69-.28,1.06-1.67-.44,.28-1.06-1.31-.34,.53-2.02,1.31,.34,.57-2.18,1.67,.44-.57,2.18,2.41,.63c.67,.18,.91-.03,1.1-.75l.32-1.21,1.82,.48-.44,1.67Z"/>
    <path class="circle-text blue" d="M13.76,35.12l-5.93-3.68,1.02-1.64,1.8,1.12,.06-.09c-.91-.76-1.46-1.92-.54-3.41,.85-1.37,2.12-1.55,3.3-1l.07-.11c-.92-.77-1.48-1.95-.53-3.47,.95-1.53,2.41-1.65,3.76-.81l3.69,2.29-1.1,1.77-3.1-1.92c-.98-.61-1.56-.49-2.19,.52-.67,1.08-.43,1.65,.6,2.29l2.99,1.86-1.1,1.77-3.1-1.92c-.98-.61-1.56-.49-2.19,.52-.67,1.08-.43,1.65,.6,2.29l2.99,1.86-1.1,1.77Z"/>
    <path class="circle-text blue" d="M18.63,21.66c-1.51-1.64-1.3-3.74,.39-5.29,1.68-1.55,3.6-1.69,5.08-.08,.17,.18,.27,.34,.41,.53l-4.18,3.84c.77,.75,1.45,.75,2.44-.16,.91-.84,1.01-1.37,.61-1.81l-.09-.1,1.54-1.41,.1,.11c1.03,1.12,.66,2.89-.97,4.39-1.71,1.57-3.65,1.81-5.33-.01Zm.98-1.83l2.72-2.51c-.66-.64-1.35-.56-2.25,.27-.91,.84-1.02,1.5-.48,2.24Z"/>
    <path class="circle-text blue" d="M27.65,15.13l-1.98-3.86,1.86-.95,1.67,3.24c.51,1,1.15,1.21,2.33,.6,1.21-.62,1.4-1.32,.86-2.37l-1.61-3.14,1.86-.95,3.18,6.2-1.73,.89-.97-1.89-.1,.05c.37,1.12,.12,2.49-1.51,3.33-1.74,.9-3.13,.25-3.84-1.14Z"/>
    <path class="circle-text blue" d="M37.07,15.92l-2.32-9.04,1.87-.48,.47,1.85,.13-.03c-.09-1.36,.6-2.27,2.19-2.67,2.08-.53,3.59,.55,4.14,2.69s-.23,3.8-2.27,4.32c-1.56,.4-2.62-.15-3.16-1.27l-.09,.02,1.05,4.11-2.02,.52Zm2.96-5.03c1.29-.33,1.79-.92,1.48-2.15-.32-1.24-1.03-1.5-2.31-1.17-1.31,.34-1.87,.95-1.56,2.15l.03,.11c.3,1.16,1.1,1.38,2.37,1.06Z"/>
    <path class="circle-text" d="M46.97,8.27l-.03-1.79,5.19-.08,.03,1.79-5.19,.08Z"/>
    <path class="circle-text" d="M55.09,11.58l2.14-9.07,2.03,.48-1.03,4.36,.11,.03c.49-1.1,1.54-1.97,3.27-1.56,1.83,.43,2.44,1.83,2.07,3.4l-.98,4.16-2.03-.48,.84-3.55c.27-1.14-.12-1.66-1.4-1.96-1.37-.32-1.92,.13-2.19,1.27l-.8,3.4-2.03-.48Z"/>
    <path class="circle-text" d="M64.69,10.42c.96-2.01,2.99-2.6,5.06-1.6,2.06,.99,2.91,2.72,1.96,4.69-.11,.23-.21,.38-.34,.58l-5.12-2.45c-.41,.99-.16,1.62,1.06,2.2,1.12,.54,1.64,.43,1.9-.11l.06-.13,1.88,.9-.07,.14c-.66,1.37-2.44,1.68-4.44,.73-2.1-1-3.03-2.72-1.96-4.95Zm2.06,.23l3.34,1.6c.35-.85,.02-1.46-1.09-1.99-1.12-.54-1.77-.39-2.25,.39Z"/>
    <path class="circle-text" d="M70.61,17.39l5.19-7.74,1.73,1.16-5.19,7.74-1.73-1.16Z"/>
    <path class="circle-text" d="M73.19,19.18l5.8-7.29,1.63,1.3-5.8,7.29-1.63-1.3Z"/>
    <path class="circle-text" d="M77.97,18.37c1.62-1.52,3.74-1.32,5.37,.42,1.63,1.73,1.7,3.86,.07,5.38-1.6,1.5-3.73,1.31-5.36-.43-1.63-1.73-1.69-3.87-.09-5.38Zm4.03,4.29c.89-.84,.97-1.59,0-2.62-.97-1.03-1.72-1-2.61-.16-.89,.84-.95,1.56,.02,2.6,.96,1.02,1.7,1.02,2.59,.18Z"/>
    <path class="circle-text" d="M85.55,27.44c1.68-.9,2.96-.45,3.59,.73,.47,.88,.28,1.71-.37,2.22l.05,.1,1.12-.6,.86,1.61-2.96,1.58c-.4,.22-.48,.46-.29,.82,.29,.54,.7,.57,1.99-.12,2.23-1.2,2.55-2.66,1.14-5.3-1.49-2.78-2.97-3.37-5.63-1.94-2.56,1.37-2.9,2.85-1.6,5.26,.42,.78,.89,1.39,1.33,1.83l-1.07,.95c-.65-.59-1.2-1.21-1.75-2.24-1.62-3.02-.81-5.82,2.22-7.44,3.09-1.66,6.24-.58,8.08,2.85,1.73,3.23,.98,6.02-1.73,7.47-1.95,1.04-3.64,.72-4.41-.73-.62-1.15-.5-2.1,.12-2.69l-.05-.1c-.68,.17-1.53,.06-2.06-.92-.6-1.12-.36-2.41,1.42-3.36Zm.18,3.33c.34,.64,.84,.8,1.57,.4l.39-.21c.71-.38,.86-.89,.52-1.53-.37-.69-.85-.79-1.76-.31-.91,.49-1.1,.95-.73,1.64Z"/>
    <path class="circle-text" d="M90.12,36.64c2.17-.49,3.8,.35,4.26,2.38,.36,1.62-.25,2.62-1.34,3.11l.03,.12,4.1-.93,.46,2.04-9.1,2.05-.43-1.9,1.89-.43-.02-.11c-1.4,.05-2.28-.7-2.64-2.26-.48-2.12,.64-3.6,2.79-4.08Zm-.77,4.35c.29,1.29,.9,1.89,2.08,1.63l.11-.02c1.18-.27,1.46-1.06,1.16-2.36s-.87-1.82-2.12-1.53c-1.24,.28-1.53,.99-1.24,2.29Z"/>
    <path class="circle-text" d="M90.27,45.88c1.03-.02,1.68,.74,1.86,2.22l.35,2.98h.26c.9-.02,1.15-.43,1.13-1.54-.02-1.06-.3-1.48-1.1-1.47h-.06s-.03-2.1-.03-2.1h.04c1.72-.03,2.94,1.4,2.98,3.69,.04,2.32-1.14,3.44-2.96,3.47l-4.09,.07-.03-1.95,1.6-.03v-.11c-1.09-.3-1.76-1.27-1.79-2.81-.02-1.5,.66-2.42,1.83-2.44Zm-.34,3.01c.02,1.42,.37,2.18,1.36,2.22l-.32-2.42c-.05-.5-.19-.72-.53-.71-.38,0-.52,.3-.51,.91Z"/>
    <path class="circle-text" d="M88.09,56.53l7.46-1.73-.46,2.28-5.25,1.07-.03,.14,4.42,3.04-.45,2.24-6.2-4.5,.51-2.52Z"/>
    <path class="circle-text" d="M86.6,62.45l6.54,2.4-.72,1.96-6.54-2.4,.72-1.96Zm7.21,2.65l1.54,.57-.72,1.96-1.54-.57,.72-1.96Z"/>
    <path class="circle-text" d="M88.88,66.78c1.95,1.08,2.6,2.79,1.6,4.61-.8,1.45-1.93,1.79-3.07,1.43l-.06,.11,3.68,2.04-1.01,1.83-8.15-4.52,.94-1.7,1.69,.94,.05-.1c-1.08-.9-1.24-2.04-.46-3.44,1.05-1.9,2.87-2.26,4.8-1.19Zm-3.47,2.74c-.64,1.16-.59,2.01,.47,2.6l.1,.05c1.06,.59,1.79,.18,2.44-.99s.56-1.93-.56-2.55c-1.11-.61-1.8-.28-2.45,.89Z"/>
    <path class="circle-text" d="M81.73,72.98l4.92,4.93-1.37,1.37-1.49-1.5-.08,.08c.71,.94,.98,2.2-.26,3.44-1.14,1.14-2.42,1.02-3.44,.21l-.09,.09c.72,.95,.99,2.23-.28,3.5s-2.73,1.05-3.85-.07l-3.07-3.07,1.48-1.47,2.57,2.58c.82,.82,1.41,.84,2.25,0,.9-.89,.8-1.5-.06-2.36l-2.49-2.49,1.48-1.47,2.57,2.58c.82,.82,1.41,.84,2.25,0,.9-.89,.8-1.5-.06-2.36l-2.49-2.49,1.48-1.47Z"/>
    <path class="circle-text" d="M73.88,84.97c1.09,1.94,.4,3.94-1.6,5.06-1.99,1.12-3.9,.81-4.97-1.09-.12-.22-.19-.39-.28-.61l4.95-2.78c-.57-.91-1.23-1.06-2.41-.4-1.08,.61-1.3,1.1-1.01,1.62l.07,.12-1.82,1.02-.07-.13c-.74-1.32,.03-2.97,1.96-4.05,2.03-1.14,3.97-.92,5.18,1.24Zm-1.38,1.55l-3.23,1.81c.5,.77,1.18,.85,2.25,.25,1.08-.61,1.34-1.23,.98-2.06Z"/>
    <path class="circle-text" d="M64.97,85.91l2.04,6.66-1.85,.57-.63-2.05-.12,.04c.17,1.17-.3,2.48-2.04,3.01-1.82,.56-3.05-.35-3.5-1.82l-1.27-4.15,2-.61,1.07,3.49c.33,1.06,.9,1.38,2.13,1.01,1.26-.39,1.56-1.03,1.21-2.16l-1.03-3.37,2-.61Z"/>
    <path class="circle-text" d="M57.43,91.76c.17,2.22-.9,3.71-2.97,3.87-1.65,.13-2.56-.63-2.88-1.77h-.13s.32,4.2,.32,4.2l-2.08,.16-.71-9.29,1.94-.15,.15,1.93h.11c.16-1.4,1.02-2.17,2.62-2.29,2.16-.17,3.46,1.16,3.63,3.35Zm-4.19-1.39c-1.32,.1-2,.61-1.91,1.82v.11c.1,1.21,.84,1.6,2.17,1.49s1.92-.59,1.82-1.87c-.1-1.26-.75-1.66-2.09-1.56Z"/>
    <path class="circle-text" d="M47.98,92.35c-.31,2.2-2.09,3.37-4.44,3.04-2.36-.33-3.74-1.94-3.44-4.15,.31-2.18,2.09-3.36,4.44-3.03,2.36,.33,3.74,1.96,3.44,4.13Zm-5.83-.82c-.17,1.21,.25,1.85,1.64,2.04,1.41,.2,1.97-.3,2.14-1.51s-.24-1.82-1.64-2.01c-1.39-.2-1.96,.27-2.13,1.48Z"/>
    <path class="circle-text" d="M40.35,87.71l-.6,1.68-3.62,1.22-1.69,.37-.05,.13,1.4,.42,2.62,.94-.62,1.73-6.57-2.37,.61-1.69,3.88-1.25,1.52-.32,.05-.13-1.28-.36-3.23-1.17,.62-1.71,6.96,2.51Z"/>
    <path class="circle-text" d="M32.26,86.57c-.53,.88-1.52,1.03-2.87,.39l-2.72-1.29-.14,.23c-.47,.77-.25,1.2,.7,1.77,.9,.55,1.42,.53,1.83-.14l.03-.05,1.8,1.09-.02,.04c-.9,1.48-2.75,1.75-4.72,.56-1.99-1.2-2.31-2.8-1.36-4.36l2.12-3.5,1.67,1.01-.83,1.37,.1,.06c.84-.76,2.01-.82,3.33-.02,1.29,.78,1.7,1.84,1.09,2.84Zm-2.37-1.89c-1.21-.74-2.04-.85-2.6-.03l2.21,1.02c.45,.22,.71,.22,.89-.06,.19-.32,.02-.6-.5-.92Z"/>
    <path class="circle-text" d="M26.41,80.76l-1.55,1.88-2.07-1.71,1.55-1.88,2.07,1.71Z"/>
    <path class="circle-text" d="M21.22,81.11c-1.65,1.49-3.72,1.29-5.32-.49-1.5-1.67-1.63-3.6-.29-4.81l.14-.13,1.39,1.54-.08,.07c-.66,.6-.46,1.3,.26,2.1,.83,.92,1.55,1.04,2.51,.17,.95-.86,.91-1.59,.08-2.51-.73-.81-1.4-1.08-2.06-.48l-.08,.07-1.39-1.54,.14-.13c1.33-1.2,3.26-.87,4.76,.79,1.6,1.78,1.57,3.87-.07,5.34Z"/>
    <path class="circle-text" d="M18.32,72.61l-8.09,4.63-1.04-1.81,3.89-2.23-.06-.1c-1.14,.39-2.49,.22-3.37-1.32-.93-1.63-.33-3.04,1.07-3.84l3.71-2.12,1.04,1.81-3.16,1.81c-1.01,.58-1.13,1.22-.48,2.36,.7,1.22,1.41,1.31,2.42,.73l3.03-1.73,1.04,1.81Z"/>
    <path class="circle-text" d="M10.4,64.05l-1.73,.49-1.42-4.99,1.73-.49,1.42,4.99Z"/>
  </g>
</svg>
