<?xml version="1.0" encoding="UTF-8"?>
<svg class="circle-pop" data-name="Layer 1" xmlns="http://www.w3.org/2000/svg" viewBox="0 0 123.97 124.11">
  <g class="hover-text">
    <path class="circle-text" d="M12.22,66.97l-12.05,.19-.04-2.7,5.79-.09v-.14c-1.54-.26-2.96-1.3-2.99-3.6-.04-2.43,1.52-3.64,3.61-3.68l5.52-.09,.04,2.7-4.71,.08c-1.51,.02-2.04,.68-2.01,2.37,.03,1.82,.78,2.36,2.29,2.34l4.52-.07,.04,2.7Z"/>
    <path class="circle-text" d="M2.64,54.34l-2.1-.31,.39-2.67,2.1,.31-.39,2.67Zm9.83,1.43l-8.92-1.3,.39-2.67,8.92,1.3-.39,2.67Z"/>
    <path class="circle-text" d="M14.08,47.82c-.54,2.04-1.82,3.02-4.01,2.44l-3.41-.9-.36,1.38-2.16-.57,.36-1.38-1.69-.44,.69-2.61,1.69,.44,.74-2.82,2.16,.57-.74,2.82,3.12,.82c.87,.23,1.18-.04,1.43-.96l.41-1.57,2.35,.62-.57,2.16Z"/>
    <path class="circle-text" d="M15.3,42.35l-7.67-4.75,1.32-2.13,2.33,1.44,.08-.12c-1.17-.98-1.89-2.49-.7-4.41,1.1-1.78,2.75-2,4.28-1.29l.09-.14c-1.19-.99-1.91-2.52-.69-4.49,1.22-1.97,3.12-2.13,4.87-1.05l4.77,2.96-1.42,2.3-4.01-2.49c-1.27-.79-2.02-.64-2.84,.68-.86,1.39-.56,2.13,.77,2.96l3.87,2.4-1.42,2.3-4.01-2.49c-1.27-.79-2.02-.64-2.84,.68-.86,1.39-.56,2.13,.77,2.96l3.87,2.4-1.42,2.3Z"/>
    <path class="circle-text" d="M21.61,24.94c-1.95-2.12-1.69-4.83,.5-6.85,2.17-2,4.66-2.19,6.58-.11,.22,.24,.35,.43,.53,.68l-5.4,4.97c.99,.97,1.87,.97,3.16-.21,1.18-1.09,1.31-1.77,.78-2.34l-.12-.13,1.99-1.83,.13,.15c1.33,1.44,.85,3.74-1.25,5.68-2.21,2.04-4.72,2.34-6.89-.02Zm1.27-2.37l3.52-3.24c-.86-.83-1.74-.72-2.91,.35-1.18,1.08-1.32,1.95-.62,2.89Z"/>
    <path class="circle-text" d="M33.28,16.49l-2.57-4.99,2.4-1.23,2.15,4.19c.67,1.3,1.49,1.56,3.01,.78,1.57-.81,1.82-1.7,1.12-3.06l-2.09-4.07,2.4-1.23,4.12,8.02-2.24,1.15-1.26-2.45-.13,.07c.48,1.45,.16,3.22-1.96,4.3-2.26,1.16-4.04,.32-4.97-1.47Z"/>
    <path class="circle-text" d="M45.47,17.51l-3-11.7,2.42-.62,.61,2.39,.17-.04c-.12-1.75,.77-2.93,2.83-3.46,2.69-.69,4.64,.71,5.35,3.48s-.3,4.91-2.94,5.59c-2.02,.52-3.39-.19-4.08-1.65l-.12,.03,1.36,5.32-2.62,.67Zm3.83-6.5c1.67-.43,2.32-1.19,1.91-2.78-.41-1.6-1.33-1.94-2.99-1.52-1.69,.43-2.42,1.23-2.02,2.79l.04,.14c.38,1.5,1.43,1.79,3.06,1.37Z"/>
    <path class="circle-text" d="M58.27,7.61l-.04-2.32,6.71-.11,.04,2.32-6.71,.11Z"/>
    <path class="circle-text" d="M68.77,11.89L71.54,.15l2.63,.62-1.33,5.64,.14,.03c.63-1.42,1.99-2.54,4.23-2.02,2.36,.56,3.16,2.37,2.68,4.4l-1.27,5.38-2.63-.62,1.08-4.59c.35-1.47-.16-2.15-1.81-2.53-1.77-.42-2.48,.17-2.83,1.64l-1.04,4.4-2.63-.62Z"/>
    <path class="circle-text" d="M81.2,10.39c1.25-2.6,3.87-3.36,6.54-2.07,2.66,1.28,3.76,3.52,2.54,6.07-.14,.29-.27,.49-.44,.75l-6.62-3.17c-.53,1.28-.21,2.1,1.37,2.85,1.44,.69,2.13,.56,2.46-.14l.08-.16,2.44,1.17-.09,.18c-.85,1.77-3.16,2.18-5.74,.94-2.71-1.3-3.92-3.52-2.54-6.41Zm2.67,.3l4.32,2.07c.45-1.1,.02-1.88-1.4-2.57-1.44-.69-2.29-.5-2.92,.5Z"/>
    <path class="circle-text" d="M88.86,19.41l6.72-10.01,2.24,1.5-6.72,10.01-2.24-1.5Z"/>
    <path class="circle-text" d="M92.2,21.72l7.5-9.44,2.11,1.68-7.5,9.44-2.11-1.68Z"/>
    <path class="circle-text" d="M98.38,20.67c2.1-1.97,4.84-1.71,6.95,.54,2.11,2.24,2.2,5,.1,6.97-2.07,1.95-4.83,1.69-6.93-.55-2.11-2.24-2.18-5.01-.11-6.95Zm5.21,5.55c1.15-1.08,1.25-2.06,0-3.39-1.26-1.34-2.23-1.29-3.38-.21-1.16,1.08-1.24,2.02,.02,3.36,1.24,1.33,2.2,1.32,3.35,.23Z"/>
    <path class="circle-text" d="M108.18,32.41c2.17-1.16,3.83-.58,4.65,.94,.61,1.14,.37,2.21-.48,2.87l.07,.13,1.44-.77,1.11,2.08-3.82,2.05c-.52,.28-.62,.6-.37,1.06,.37,.7,.91,.74,2.57-.15,2.89-1.55,3.3-3.44,1.47-6.85-1.93-3.6-3.84-4.35-7.29-2.51-3.32,1.78-3.75,3.68-2.07,6.81,.54,1.02,1.15,1.8,1.72,2.37l-1.38,1.23c-.83-.76-1.55-1.56-2.26-2.89-2.09-3.9-1.05-7.53,2.87-9.62,4-2.14,8.07-.75,10.45,3.69,2.24,4.17,1.27,7.79-2.23,9.67-2.52,1.35-4.71,.93-5.71-.94-.8-1.49-.64-2.72,.16-3.48l-.07-.13c-.88,.23-1.98,.08-2.66-1.19-.77-1.44-.47-3.12,1.83-4.35Zm.23,4.31c.44,.83,1.08,1.03,2.04,.52l.51-.27c.92-.49,1.12-1.15,.68-1.98-.48-.89-1.1-1.02-2.27-.4-1.17,.63-1.42,1.23-.95,2.12Z"/>
    <path class="circle-text" d="M114.1,44.32c2.81-.63,4.92,.46,5.51,3.07,.47,2.09-.32,3.4-1.73,4.03l.04,.16,5.3-1.2,.6,2.63-11.77,2.66-.55-2.46,2.44-.55-.03-.14c-1.81,.06-2.95-.9-3.41-2.92-.62-2.74,.83-4.65,3.61-5.28Zm-1,5.63c.38,1.67,1.16,2.45,2.69,2.11l.14-.03c1.53-.35,1.89-1.37,1.51-3.05s-1.12-2.35-2.74-1.98c-1.6,.36-1.98,1.28-1.6,2.96Z"/>
    <path class="circle-text" d="M114.29,56.26c1.33-.02,2.17,.95,2.4,2.88l.46,3.86h.34c1.17-.02,1.48-.55,1.46-1.99-.02-1.37-.39-1.92-1.42-1.9h-.07s-.04-2.72-.04-2.72h.05c2.23-.04,3.81,1.81,3.86,4.78,.05,3-1.48,4.45-3.83,4.49l-5.29,.08-.04-2.52,2.07-.03v-.14c-1.41-.39-2.28-1.64-2.31-3.63-.03-1.94,.85-3.13,2.36-3.15Zm-.44,3.89c.03,1.83,.48,2.82,1.76,2.87l-.41-3.12c-.06-.65-.25-.93-.68-.92-.49,0-.68,.39-.67,1.18Z"/>
    <path class="circle-text" d="M111.48,70.04l9.65-2.23-.6,2.95-6.8,1.38-.04,.18,5.72,3.93-.59,2.89-8.02-5.83,.66-3.26Z"/>
    <path class="circle-text" d="M109.55,77.71l8.46,3.11-.93,2.53-8.46-3.11,.93-2.53Zm9.32,3.43l1.99,.73-.93,2.53-1.99-.73,.93-2.53Z"/>
    <path class="circle-text" d="M112.49,83.31c2.52,1.4,3.37,3.62,2.07,5.96-1.04,1.87-2.5,2.32-3.97,1.85l-.08,.14,4.76,2.64-1.31,2.36-10.55-5.85,1.22-2.2,2.19,1.21,.07-.13c-1.39-1.16-1.6-2.64-.6-4.45,1.36-2.46,3.72-2.92,6.21-1.54Zm-4.49,3.54c-.83,1.5-.76,2.6,.61,3.36l.13,.07c1.37,.76,2.32,.24,3.16-1.28s.73-2.5-.72-3.3c-1.43-.79-2.33-.37-3.17,1.15Z"/>
    <path class="circle-text" d="M103.24,91.33l6.37,6.38-1.77,1.77-1.93-1.94-.1,.1c.91,1.22,1.27,2.85-.34,4.45-1.48,1.47-3.13,1.32-4.45,.27l-.11,.11c.93,1.24,1.28,2.89-.36,4.53s-3.53,1.36-4.98-.09l-3.97-3.98,1.91-1.91,3.33,3.34c1.06,1.06,1.82,1.08,2.92,0,1.16-1.16,1.03-1.95-.07-3.05l-3.22-3.22,1.91-1.91,3.33,3.34c1.06,1.06,1.82,1.08,2.91,0,1.16-1.16,1.03-1.95-.07-3.05l-3.22-3.22,1.91-1.91Z"/>
    <path class="circle-text" d="M93.09,106.85c1.41,2.51,.52,5.09-2.07,6.55-2.58,1.44-5.04,1.05-6.43-1.41-.16-.28-.24-.5-.36-.79l6.41-3.59c-.74-1.17-1.6-1.38-3.12-.52-1.4,.78-1.68,1.42-1.3,2.09l.09,.16-2.36,1.32-.1-.17c-.96-1.71,.04-3.84,2.53-5.24,2.62-1.47,5.13-1.19,6.7,1.61Zm-1.78,2.01l-4.18,2.34c.64,1,1.53,1.1,2.91,.33,1.4-.78,1.73-1.59,1.27-2.67Z"/>
    <path class="circle-text" d="M81.56,108.06l2.65,8.62-2.39,.73-.81-2.65-.16,.05c.22,1.51-.39,3.21-2.64,3.9-2.36,.72-3.94-.45-4.53-2.36l-1.65-5.37,2.58-.79,1.38,4.51c.42,1.38,1.17,1.79,2.75,1.3,1.64-.5,2.02-1.34,1.57-2.8l-1.34-4.35,2.58-.79Z"/>
    <path class="circle-text" d="M71.8,115.63c.22,2.87-1.17,4.8-3.84,5-2.14,.16-3.31-.81-3.73-2.3h-.16s.42,5.43,.42,5.43l-2.69,.21-.92-12.02,2.51-.19,.19,2.49h.14c.21-1.81,1.32-2.8,3.38-2.96,2.8-.21,4.48,1.5,4.7,4.33Zm-5.43-1.8c-1.7,.13-2.59,.79-2.47,2.35v.14c.13,1.56,1.09,2.07,2.81,1.93s2.49-.77,2.36-2.42c-.12-1.63-.98-2.14-2.7-2.01Z"/>
    <path class="circle-text" d="M59.58,116.39c-.4,2.85-2.7,4.36-5.75,3.94-3.05-.43-4.84-2.52-4.44-5.37,.4-2.82,2.7-4.35,5.75-3.92,3.05,.43,4.84,2.53,4.45,5.35Zm-7.54-1.06c-.22,1.57,.32,2.39,2.12,2.64,1.82,.25,2.54-.39,2.76-1.96s-.31-2.35-2.12-2.61c-1.8-.25-2.54,.35-2.76,1.92Z"/>
    <path class="circle-text" d="M49.71,110.38l-.78,2.17-4.69,1.58-2.18,.48-.06,.17,1.82,.54,3.39,1.22-.81,2.24-8.5-3.06,.79-2.18,5.02-1.62,1.97-.42,.06-.17-1.65-.46-4.18-1.51,.8-2.22,9.01,3.25Z"/>
    <path class="circle-text" d="M39.24,108.92c-.69,1.14-1.97,1.33-3.72,.5l-3.52-1.67-.18,.29c-.61,1-.33,1.55,.9,2.3,1.17,.71,1.83,.69,2.37-.19l.04-.06,2.32,1.41-.03,.05c-1.16,1.91-3.56,2.26-6.1,.72-2.57-1.56-2.98-3.62-1.76-5.64l2.75-4.53,2.16,1.31-1.07,1.77,.12,.07c1.08-.99,2.6-1.06,4.31-.02,1.66,1.01,2.2,2.39,1.41,3.68Zm-3.06-2.45c-1.57-.95-2.64-1.1-3.37-.04l2.87,1.32c.58,.29,.92,.29,1.15-.08,.25-.42,.03-.78-.65-1.19Z"/>
    <path class="circle-text" d="M31.68,101.39l-2.01,2.43-2.68-2.21,2.01-2.43,2.68,2.21Z"/>
    <path class="circle-text" d="M24.95,101.85c-2.14,1.93-4.82,1.67-6.89-.63-1.94-2.15-2.11-4.66-.37-6.23l.19-.17,1.79,1.99-.11,.1c-.86,.77-.6,1.68,.34,2.72,1.07,1.19,2.01,1.34,3.25,.22,1.23-1.11,1.18-2.05,.11-3.25-.94-1.04-1.81-1.4-2.67-.62l-.11,.1-1.79-1.99,.19-.17c1.73-1.55,4.21-1.13,6.15,1.03,2.07,2.3,2.03,5-.08,6.9Z"/>
    <path class="circle-text" d="M21.2,90.85l-10.47,5.99-1.34-2.34,5.03-2.88-.07-.12c-1.47,.51-3.22,.29-4.36-1.71-1.21-2.11-.42-3.93,1.39-4.96l4.8-2.75,1.34,2.34-4.09,2.34c-1.31,.75-1.46,1.58-.62,3.05,.9,1.58,1.82,1.7,3.13,.94l3.92-2.24,1.34,2.34Z"/>
    <path class="circle-text" d="M10.96,79.78l-2.23,.64-1.84-6.46,2.23-.64,1.84,6.46Z"/>
  </g>
  <circle class="circle-center" cx="62.14" cy="61.71" r="50"/>
</svg>
