<?xml version="1.0" encoding="UTF-8"?>
<svg id="star-in-logo" data-name="Layer 1" xmlns="http://www.w3.org/2000/svg" viewBox="0 0 190.18 25">
  <path id="one-star" d="M102.08,23.37l-2.42-2.66c-.39-.43-1.1-.26-1.26,.3l-.98,3.46c-.21,.74-1.27,.71-1.44-.04l-.76-3.52c-.12-.57-.82-.78-1.24-.37l-2.58,2.51c-.55,.54-1.46-.02-1.22-.76l1.1-3.43c.18-.55-.32-1.09-.89-.94l-3.49,.88c-.75,.19-1.25-.75-.68-1.27l2.66-2.42c.43-.39,.26-1.1-.3-1.26l-3.46-.98c-.74-.21-.71-1.27,.04-1.44l3.52-.76c.57-.12,.78-.82,.37-1.24l-2.51-2.58c-.54-.55,.02-1.46,.76-1.22l3.43,1.1c.55,.18,1.09-.32,.94-.89l-.88-3.49c-.19-.75,.75-1.25,1.27-.68l2.42,2.66c.39,.43,1.1,.26,1.26-.3l.98-3.46c.21-.74,1.27-.71,1.44,.04l.76,3.52c.12,.57,.82,.78,1.24,.37l2.58-2.51c.55-.54,1.46,.02,1.22,.76l-1.1,3.43c-.18,.55,.32,1.09,.89,.94l3.49-.88c.75-.19,1.25,.75,.68,1.27l-2.66,2.42c-.43,.39-.26,1.1,.3,1.26l3.46,.98c.74,.21,.71,1.27-.04,1.44l-3.52,.76c-.57,.12-.78,.82-.37,1.24l2.51,2.58c.54,.55-.02,1.46-.76,1.22l-3.43-1.1c-.55-.18-1.09,.32-.94,.89l.88,3.49c.19,.75-.75,1.25-1.27,.68Z"/>
</svg>
