<?xml version="1.0" encoding="UTF-8"?>
<svg id="rotating-sun" data-name="Layer 1" xmlns="http://www.w3.org/2000/svg" viewBox="0 0 127.6 127.6">
  <path class="logo-star" d="M89.28,119.04l-12.31-13.55c-1.99-2.19-5.61-1.34-6.42,1.51l-5,17.61c-1.07,3.77-6.48,3.61-7.31-.23l-3.89-17.89c-.63-2.89-4.19-3.96-6.31-1.9l-13.13,12.75c-2.82,2.73-7.41-.12-6.22-3.85l5.58-17.43c.9-2.82-1.64-5.53-4.51-4.8l-17.75,4.48c-3.8,.96-6.36-3.81-3.46-6.45l13.55-12.31c2.19-1.99,1.34-5.61-1.51-6.42l-17.61-5c-3.77-1.07-3.61-6.48,.23-7.31l17.89-3.89c2.89-.63,3.96-4.19,1.9-6.31l-12.75-13.13c-2.73-2.82,.12-7.41,3.85-6.22l17.43,5.58c2.82,.9,5.53-1.64,4.8-4.51l-4.48-17.75c-.96-3.8,3.81-6.36,6.45-3.46l12.31,13.55c1.99,2.19,5.61,1.34,6.42-1.51L62.04,2.99c1.07-3.77,6.48-3.61,7.31,.23l3.89,17.89c.63,2.89,4.19,3.96,6.31,1.9l13.13-12.75c2.82-2.73,7.41,.12,6.22,3.85l-5.58,17.43c-.9,2.82,1.64,5.53,4.51,4.8l17.75-4.48c3.8-.96,6.36,3.81,3.46,6.45l-13.55,12.31c-2.19,1.99-1.34,5.61,1.51,6.42l17.61,5c3.77,1.07,3.61,6.48-.23,7.31l-17.89,3.89c-2.89,.63-3.96,4.19-1.9,6.31l12.75,13.13c2.73,2.82-.12,7.41-3.85,6.22l-17.43-5.58c-2.82-.9-5.53,1.64-4.8,4.51l4.48,17.75c.96,3.8-3.81,6.36-6.45,3.46Z"/>
</svg>
