<?xml version="1.0" encoding="UTF-8"?>
<svg id="stars-main-path" data-name="Layer 1" xmlns="http://www.w3.org/2000/svg" viewBox="0 0 190.18 25">
  <path class="star" d="M102.08,23.37l-2.42-2.66c-.39-.43-1.1-.26-1.26,.3l-.98,3.46c-.21,.74-1.27,.71-1.44-.04l-.76-3.52c-.12-.57-.82-.78-1.24-.37l-2.58,2.51c-.55,.54-1.46-.02-1.22-.76l1.1-3.43c.18-.55-.32-1.09-.89-.94l-3.49,.88c-.75,.19-1.25-.75-.68-1.27l2.66-2.42c.43-.39,.26-1.1-.3-1.26l-3.46-.98c-.74-.21-.71-1.27,.04-1.44l3.52-.76c.57-.12,.78-.82,.37-1.24l-2.51-2.58c-.54-.55,.02-1.46,.76-1.22l3.43,1.1c.55,.18,1.09-.32,.94-.89l-.88-3.49c-.19-.75,.75-1.25,1.27-.68l2.42,2.66c.39,.43,1.1,.26,1.26-.3l.98-3.46c.21-.74,1.27-.71,1.44,.04l.76,3.52c.12,.57,.82,.78,1.24,.37l2.58-2.51c.55-.54,1.46,.02,1.22,.76l-1.1,3.43c-.18,.55,.32,1.09,.89,.94l3.49-.88c.75-.19,1.25,.75,.68,1.27l-2.66,2.42c-.43,.39-.26,1.1,.3,1.26l3.46,.98c.74,.21,.71,1.27-.04,1.44l-3.52,.76c-.57,.12-.78,.82-.37,1.24l2.51,2.58c.54,.55-.02,1.46-.76,1.22l-3.43-1.1c-.55-.18-1.09,.32-.94,.89l.88,3.49c.19,.75-.75,1.25-1.27,.68Z"/>
  <path class="star" d="M7.96,17.44l-1.1-1.21c-.18-.2-.5-.12-.57,.13l-.45,1.57c-.1,.34-.58,.32-.65-.02l-.35-1.6c-.06-.26-.37-.35-.56-.17l-1.17,1.14c-.25,.24-.66-.01-.56-.34l.5-1.56c.08-.25-.15-.49-.4-.43l-1.59,.4c-.34,.09-.57-.34-.31-.58l1.21-1.1c.2-.18,.12-.5-.13-.57l-1.57-.45c-.34-.1-.32-.58,.02-.65l1.6-.35c.26-.06,.35-.37,.17-.56l-1.14-1.17c-.24-.25,.01-.66,.34-.56l1.56,.5c.25,.08,.49-.15,.43-.4l-.4-1.59c-.09-.34,.34-.57,.58-.31l1.1,1.21c.18,.2,.5,.12,.57-.13l.45-1.57c.1-.34,.58-.32,.65,.02l.35,1.6c.06,.26,.37,.35,.56,.17l1.17-1.14c.25-.24,.66,.01,.56,.34l-.5,1.56c-.08,.25,.15,.49,.4,.43l1.59-.4c.34-.09,.57,.34,.31,.58l-1.21,1.1c-.2,.18-.12,.5,.13,.57l1.57,.45c.34,.1,.32,.58-.02,.65l-1.6,.35c-.26,.06-.35,.37-.17,.56l1.14,1.17c.24,.25-.01,.66-.34,.56l-1.56-.5c-.25-.08-.49,.15-.43,.4l.4,1.59c.09,.34-.34,.57-.58,.31Z"/>
  <path class="star" d="M51.3,19.74l-1.61-1.78c-.26-.29-.74-.18-.84,.2l-.66,2.31c-.14,.49-.85,.47-.96-.03l-.51-2.35c-.08-.38-.55-.52-.83-.25l-1.72,1.67c-.37,.36-.97-.02-.82-.51l.73-2.29c.12-.37-.22-.72-.59-.63l-2.33,.59c-.5,.13-.83-.5-.45-.85l1.78-1.61c.29-.26,.18-.74-.2-.84l-2.31-.66c-.49-.14-.47-.85,.03-.96l2.35-.51c.38-.08,.52-.55,.25-.83l-1.67-1.72c-.36-.37,.02-.97,.51-.82l2.29,.73c.37,.12,.72-.22,.63-.59l-.59-2.33c-.13-.5,.5-.83,.85-.45l1.61,1.78c.26,.29,.74,.18,.84-.2l.66-2.31c.14-.49,.85-.47,.96,.03l.51,2.35c.08,.38,.55,.52,.83,.25l1.72-1.67c.37-.36,.97,.02,.82,.51l-.73,2.29c-.12,.37,.22,.72,.59,.63l2.33-.59c.5-.13,.83,.5,.45,.85l-1.78,1.61c-.29,.26-.18,.74,.2,.84l2.31,.66c.49,.14,.47,.85-.03,.96l-2.35,.51c-.38,.08-.52,.55-.25,.83l1.67,1.72c.36,.37-.02,.97-.51,.82l-2.29-.73c-.37-.12-.72,.22-.63,.59l.59,2.33c.13,.5-.5,.83-.85,.45Z"/>
  <path class="star" d="M186.77,17.44l-1.1-1.21c-.18-.2-.5-.12-.57,.13l-.45,1.57c-.1,.34-.58,.32-.65-.02l-.35-1.6c-.06-.26-.37-.35-.56-.17l-1.17,1.14c-.25,.24-.66-.01-.56-.34l.5-1.56c.08-.25-.15-.49-.4-.43l-1.59,.4c-.34,.09-.57-.34-.31-.58l1.21-1.1c.2-.18,.12-.5-.13-.57l-1.57-.45c-.34-.1-.32-.58,.02-.65l1.6-.35c.26-.06,.35-.37,.17-.56l-1.14-1.17c-.24-.25,.01-.66,.34-.56l1.56,.5c.25,.08,.49-.15,.43-.4l-.4-1.59c-.09-.34,.34-.57,.58-.31l1.1,1.21c.18,.2,.5,.12,.57-.13l.45-1.57c.1-.34,.58-.32,.65,.02l.35,1.6c.06,.26,.37,.35,.56,.17l1.17-1.14c.25-.24,.66,.01,.56,.34l-.5,1.56c-.08,.25,.15,.49,.4,.43l1.59-.4c.34-.09,.57,.34,.31,.58l-1.21,1.1c-.2,.18-.12,.5,.13,.57l1.57,.45c.34,.1,.32,.58-.02,.65l-1.6,.35c-.26,.06-.35,.37-.17,.56l1.14,1.17c.24,.25-.01,.66-.34,.56l-1.56-.5c-.25-.08-.49,.15-.43,.4l.4,1.59c.09,.34-.34,.57-.58,.31Z"/>
  <path class="star" d="M147.53,19.74l-1.61-1.78c-.26-.29-.74-.18-.84,.2l-.66,2.31c-.14,.49-.85,.47-.96-.03l-.51-2.35c-.08-.38-.55-.52-.83-.25l-1.72,1.67c-.37,.36-.97-.02-.82-.51l.73-2.29c.12-.37-.22-.72-.59-.63l-2.33,.59c-.5,.13-.83-.5-.45-.85l1.78-1.61c.29-.26,.18-.74-.2-.84l-2.31-.66c-.49-.14-.47-.85,.03-.96l2.35-.51c.38-.08,.52-.55,.25-.83l-1.67-1.72c-.36-.37,.02-.97,.51-.82l2.29,.73c.37,.12,.72-.22,.63-.59l-.59-2.33c-.13-.5,.5-.83,.85-.45l1.61,1.78c.26,.29,.74,.18,.84-.2l.66-2.31c.14-.49,.85-.47,.96,.03l.51,2.35c.08,.38,.55,.52,.83,.25l1.72-1.67c.37-.36,.97,.02,.82,.51l-.73,2.29c-.12,.37,.22,.72,.59,.63l2.33-.59c.5-.13,.83,.5,.45,.85l-1.78,1.61c-.29,.26-.18,.74,.2,.84l2.31,.66c.49,.14,.47,.85-.03,.96l-2.35,.51c-.38,.08-.52,.55-.25,.83l1.67,1.72c.36,.37-.02,.97-.51,.82l-2.29-.73c-.37-.12-.72,.22-.63,.59l.59,2.33c.13,.5-.5,.83-.85,.45Z"/>
</svg>
